<?xml version="1.0" encoding="utf-8"?>
<!-- Generator: Adobe Illustrator 24.3.0, SVG Export Plug-In . SVG Version: 6.00 Build 0)  -->
<svg version="1.1" id="Layer_1" xmlns="http://www.w3.org/2000/svg" xmlns:xlink="http://www.w3.org/1999/xlink" x="0px" y="0px"
	 viewBox="0 0 83.87 83.86" style="enable-background:new 0 0 83.87 83.86;" xml:space="preserve">
<style type="text/css">
	.st0{fill-rule:evenodd;clip-rule:evenodd;fill:#010101;}
</style>
<path class="st0" d="M9.32,7.89c5.12,7.82,13.64,8.88,21.42,4.81c3.95-2.06,6.83-4.29,10.17-5.8c5.27-2.37,14.81-3.21,18.39,2.33
	c3.89,5.98-1.84,11.23-6.02,10.74c-4.18-0.5-3.38-3.74-2.55-4.26c0,0-1.47-0.94-0.94-2.94s3.52-2.72,4.62-2
	c0.81,0.53,0.4,0.64-0.06,0.62c-1.84-0.07-3.16,2.22-1.89,3.65c1.62,1.84,5.58,0.11,4.92-3.54c-0.48-2.66-3.14-4.7-7.41-4.95
	c-7.12-0.4-12.7,3.47-18.61,6.72c-7.23,3.96-16.3,3.98-22.13-4.04L9.27,8.4L9.32,7.89z"/>
<path class="st0" d="M9.32,7.89c2.39,2.26,8.07,4.9,11.91,2.77c3.84-2.15,3.87-6.75,1.23-8.29c-2.62-1.56-4.99-0.55-5.27,1.14
	C16.92,5.19,18.77,6.86,20,6.35c1.21-0.5,0.24-1.52-0.48-1.52s-0.37-1.74,1.63-1.49c2,0.24,2.94,2.88,0.7,4.83
	c-2.24,1.93-5.3,0.57-6.9-0.95c-1.61-1.52-4.99-1.41-4.81-1.76c0.2-0.37,2.97-0.95,4-2.17c1.03-1.23,4.5-4.02,8.46-2.04
	c3.96,2,2.7,6.7,0.73,8.9c-1.96,2.22-4.18,2.28-4.18,2.28s1.78,0.86,4.59-1.8c2.79-2.66,6.09-5.82,12.31-5.87
	c6.2-0.06,11.25,3.82,10.53,9.71c-0.72,5.87-5.32,9.3-10.37,8.92c-5.05-0.39-5.78-3.71-9.27-4.72c-3.49-0.99-5.87,0.73-5.87,0.73
	s0.88-2.22,4.09-2.39c3.23-0.17,4.5-0.84,6.61-2.83c2.11-2,6.61-2.84,7.65,0.22c1.06,3.05-1.49,4.46-3.3,3.98
	c-1.8-0.46-1.54-1.87-0.46-2.4c1.08-0.53-0.35-1.58-1.93-0.66c-1.58,0.9-1.41,4.95,2.83,5.65c4.26,0.7,8.04-2,8.41-6.99
	c0.39-4.99-4.04-7.87-9.65-7.54c-5.6,0.33-8.2,2.72-10.75,4.83c-2.55,2.11-6.84,3.23-10.15,1.69C11.1,11.43,9.32,7.89,9.32,7.89
	L9.32,7.89z"/>
<path class="st0" d="M30.96,5.62c3.12-1.01,3.06-2.66,2.68-3.45c-0.39-0.77-1.25-0.33-1.38,0.31c-0.15,0.64-0.57-0.97,0.51-1.61
	c1.08-0.62,2.15-0.02,2.55,0.59c0,0,0.37-0.77,1.23-0.5c0.86,0.28,0.77,0.72,0.77,0.72s1.34-0.55,1.36,0.88
	c0.04,1.45-2.17,2.17-4.26,2.51C32.32,5.4,30.96,5.62,30.96,5.62L30.96,5.62z"/>
<path class="st0" d="M46.58,14.28c-0.83,3.19,0.61,4.04,1.47,4.13c0.86,0.07,0.95-0.88,0.48-1.34c-0.46-0.46,1.12,0.06,1.08,1.3
	c-0.04,1.25-1.12,1.82-1.85,1.84c0,0,0.46,0.73-0.24,1.3c-0.68,0.59-1.01,0.28-1.01,0.28s-0.26,1.41-1.49,0.68
	c-1.23-0.75-0.66-2.99,0.18-4.95S46.58,14.28,46.58,14.28L46.58,14.28z"/>
<path class="st0" d="M46.8,5.3c3.58-0.4,3.87-2.18,3.63-3.1c-0.24-0.92-1.27-0.64-1.56,0.02c-0.28,0.66-0.37-1.16,0.92-1.61
	c1.3-0.44,2.29,0.44,2.61,1.19c0,0,0.57-0.75,1.43-0.28c0.84,0.5,0.66,0.95,0.66,0.95s1.56-0.31,1.27,1.25
	c-0.29,1.54-2.79,1.84-5.12,1.73C48.3,5.36,46.8,5.3,46.8,5.3L46.8,5.3z"/>
<path class="st0" d="M56.32,8.15c3.47,2.62,8.15,2.83,11.69,1.61c4.53-1.52,4.26-4.59,8-6.57c1.74-0.92,3.45-1.03,4.46,0.09
	c1.87,2.13-1.19,2.9-1.54,2c-0.37-0.92-0.18,1.43,1.39,1.38c1.6-0.05,2.2-2.07,1.84-2.94c-0.35-0.86,1.16,0.7,1.6,0.04
	c0.42-0.68-0.44-1.34-0.44-1.34s1.58-1.19-2.13-1.67c-3.73-0.48-5.76,0.44-9.38,4.94c-3.63,4.5-10.04,3.67-13.21,2.02
	c-3.16-1.65-4.72-2.24-6.64-2.5l-0.15,0.26L56.32,8.15z"/>
<path class="st0" d="M56.8,6.81c4.57,1.85,7.84,0.46,7.67-0.81c-0.17-1.25-1.6-0.81-1.69-0.39c-0.09,0.42-0.84-0.79,0.48-1.52
	c1.3-0.73,2.42,0.4,2.46,0.88c0.04,0.46,0.68-0.59,1.17-0.35c0.5,0.22,0.59,1.05,0.59,1.05s0.81-0.83,1.36,0.28
	c0.53,1.1-2.17,3.32-4.24,3.34C62.54,9.29,59.07,8.77,56.8,6.81L56.8,6.81z"/>
<path class="st0" d="M71.37,7.34c0.57-1.03,2.53-1.12,3.34,0.07c0.81,1.19,0.7,2.97-0.31,3.52c-0.99,0.55-1.69-0.07-1.69-0.31
	c-0.02-0.24-0.22-0.15-0.4-0.44c-0.2-0.31-0.09-0.33-0.44-0.29c-0.35,0.02-0.77-0.06-0.88-0.57c-0.11-0.51,0.51-1.1,0.95-1.01
	c0.44,0.09-0.51,0.73-0.18,0.9c0.33,0.17,1.34,0.18,1.28-0.83c-0.04-1.03-1.5-0.9-2.46,0.04l-0.75,0.09L71.37,7.34z"/>
<path class="st0" d="M21.75,19.75c0,0,3.32-1.49,6.53,0.5c3.21,2,7.82,6.72,15.47,1.34l0.09,0.37c0,0-1.98,2.37-6.92,2.59
	c-4.02,0.18-6.39-2.77-10.9-4.46C24.94,19.67,23.23,19.84,21.75,19.75L21.75,19.75z"/>
<path class="st0" d="M7.91,9.3c7.82,5.14,8.88,13.64,4.81,21.43c-2.07,3.95-4.29,6.81-5.82,10.15C4.53,46.15,3.71,55.7,9.23,59.29
	c6,3.87,11.23-1.84,10.74-6.02c-0.5-4.2-3.74-3.39-4.24-2.55c0,0-0.94-1.47-2.94-0.95c-2,0.53-2.72,3.52-2,4.64
	c0.53,0.81,0.62,0.4,0.61-0.06c-0.07-1.84,2.22-3.16,3.67-1.89c1.84,1.6,0.11,5.58-3.56,4.9c-2.64-0.48-4.7-3.14-4.94-7.4
	c-0.4-7.14,3.47-12.7,6.72-18.63c3.96-7.23,3.98-16.28-4.06-22.11L8.42,9.25L7.91,9.3z"/>
<path class="st0" d="M7.91,9.3c2.26,2.39,4.9,8.09,2.75,11.91c-2.13,3.84-6.73,3.87-8.29,1.25c-1.54-2.64-0.55-4.99,1.14-5.27
	c1.69-0.29,3.36,1.58,2.86,2.79c-0.5,1.23-1.52,0.26-1.52-0.46c0-0.73-1.74-0.37-1.5,1.63c0.26,1.98,2.88,2.94,4.83,0.68
	c1.95-2.24,0.59-5.29-0.94-6.9c-1.52-1.6-1.41-4.99-1.78-4.79c-0.37,0.18-0.94,2.95-2.17,3.98c-1.21,1.03-4.02,4.5-2.02,8.46
	s6.68,2.72,8.9,0.73c2.22-1.96,2.28-4.17,2.28-4.17s0.86,1.78-1.8,4.57c-2.66,2.81-5.84,6.11-5.89,12.31
	c-0.05,6.22,3.84,11.27,9.71,10.53c5.89-0.72,9.32-5.32,8.94-10.37c-0.39-5.05-3.73-5.76-4.72-9.25c-0.99-3.51,0.72-5.89,0.72-5.89
	s-2.22,0.9-2.39,4.11c-0.17,3.21-0.83,4.5-2.83,6.59c-2,2.11-2.83,6.61,0.22,7.67c3.05,1.05,4.48-1.5,4-3.3
	c-0.48-1.8-1.89-1.56-2.42-0.48c-0.51,1.08-1.58-0.33-0.66-1.91c0.92-1.58,4.97-1.41,5.65,2.83c0.7,4.24-2,8.02-6.97,8.4
	c-4.99,0.37-7.89-4.06-7.54-9.65c0.33-5.6,2.72-8.2,4.81-10.75c2.11-2.55,3.25-6.85,1.71-10.17C11.43,11.1,7.91,9.3,7.91,9.3
	L7.91,9.3z"/>
<path class="st0" d="M5.63,30.94c-1.01,3.14-2.68,3.08-3.45,2.7c-0.77-0.39-0.33-1.25,0.29-1.39c0.64-0.13-0.95-0.55-1.6,0.53
	c-0.64,1.08-0.04,2.13,0.59,2.55c0,0-0.79,0.37-0.51,1.21c0.28,0.86,0.73,0.79,0.73,0.79s-0.57,1.32,0.88,1.36
	c1.45,0.02,2.17-2.17,2.5-4.28C5.4,32.3,5.63,30.94,5.63,30.94L5.63,30.94z"/>
<path class="st0" d="M14.3,46.56c3.17-0.83,4.02,0.61,4.11,1.49c0.09,0.86-0.88,0.94-1.34,0.48c-0.46-0.46,0.06,1.12,1.3,1.08
	c1.27-0.06,1.84-1.12,1.85-1.87c0,0,0.72,0.48,1.3-0.22c0.57-0.7,0.26-1.03,0.26-1.03s1.43-0.24,0.68-1.47
	c-0.75-1.25-2.99-0.68-4.94,0.17C15.56,46.03,14.3,46.56,14.3,46.56L14.3,46.56z"/>
<path class="st0" d="M5.3,46.8c-0.39,3.56-2.18,3.87-3.1,3.62c-0.92-0.24-0.62-1.25,0.02-1.54c0.66-0.29-1.16-0.39-1.6,0.92
	c-0.44,1.3,0.44,2.29,1.17,2.61c0,0-0.75,0.55-0.26,1.41c0.48,0.86,0.94,0.68,0.94,0.68s-0.29,1.54,1.25,1.27
	c1.56-0.29,1.85-2.81,1.74-5.14C5.36,48.28,5.3,46.8,5.3,46.8L5.3,46.8z"/>
<path class="st0" d="M8.17,56.3c2.62,3.47,2.81,8.17,1.61,11.69c-1.54,4.55-4.59,4.26-6.57,8.02c-0.92,1.72-1.05,3.45,0.09,4.44
	c2.13,1.87,2.88-1.17,1.98-1.54c-0.9-0.35,1.43-0.18,1.38,1.41c-0.04,1.6-2.07,2.2-2.92,1.84c-0.86-0.37,0.7,1.16,0.02,1.58
	c-0.66,0.42-1.34-0.42-1.34-0.42s-1.17,1.56-1.65-2.15c-0.48-3.71,0.42-5.74,4.92-9.38c4.51-3.62,3.69-10.02,2.04-13.19
	c-1.65-3.17-2.24-4.73-2.51-6.66l0.28-0.15L8.17,56.3z"/>
<path class="st0" d="M6.81,56.78c1.85,4.57,0.48,7.85-0.79,7.69c-1.27-0.17-0.81-1.6-0.39-1.69c0.42-0.11-0.81-0.84-1.54,0.46
	c-0.73,1.32,0.42,2.42,0.88,2.46c0.48,0.06-0.57,0.68-0.35,1.17c0.24,0.5,1.05,0.61,1.05,0.61s-0.83,0.81,0.28,1.34
	c1.1,0.53,3.34-2.17,3.34-4.22C9.29,62.52,8.77,59.07,6.81,56.78L6.81,56.78z"/>
<path class="st0" d="M7.34,71.37c-1.03,0.57-1.1,2.51,0.09,3.32c1.19,0.83,2.95,0.72,3.51-0.29c0.55-1.01-0.07-1.69-0.31-1.71
	c-0.22-0.02-0.13-0.22-0.44-0.4c-0.31-0.18-0.31-0.09-0.29-0.42c0.02-0.35-0.06-0.77-0.57-0.9c-0.5-0.11-1.1,0.51-0.99,0.95
	c0.09,0.46,0.73-0.5,0.88-0.17c0.17,0.33,0.2,1.34-0.83,1.28c-1.01-0.06-0.9-1.5,0.04-2.48l0.11-0.73L7.34,71.37z"/>
<path class="st0" d="M19.76,21.73c0,0-1.5,3.32,0.5,6.55c2,3.21,6.72,7.82,1.32,15.47l0.39,0.07c0,0,2.35-1.98,2.57-6.92
	c0.18-4-2.75-6.37-4.44-10.88C19.69,24.94,19.86,23.23,19.76,21.73L19.76,21.73z"/>
<path class="st0" d="M8.97,10.64C6.75,7.96,1.52,8.13,0,11.07V0l10.24,10L8.97,10.64z"/>
<path class="st0" d="M10.64,8.96C7.96,6.73,8.13,1.5,11.07,0H0l10.02,10.24L10.64,8.96z"/>
<g>
</g>
<g>
</g>
<g>
</g>
<g>
</g>
<g>
</g>
<g>
</g>
</svg>
