<?xml version="1.0" encoding="utf-8"?>
<!-- Generator: Adobe Illustrator 24.3.0, SVG Export Plug-In . SVG Version: 6.00 Build 0)  -->
<svg version="1.1" id="Layer_1" xmlns="http://www.w3.org/2000/svg" xmlns:xlink="http://www.w3.org/1999/xlink" x="0px" y="0px"
	 viewBox="0 0 83.87 83.86" style="enable-background:new 0 0 83.87 83.86;" xml:space="preserve">
<style type="text/css">
	.st0{fill-rule:evenodd;clip-rule:evenodd;fill:#010101;}
</style>
<path class="st0" d="M7.9,74.54c7.82-5.12,8.88-13.64,4.81-21.42c-2.06-3.95-4.29-6.83-5.8-10.17C4.54,37.69,3.7,28.15,9.24,24.57
	c5.98-3.89,11.23,1.84,10.74,6.02c-0.5,4.18-3.74,3.38-4.26,2.55c0,0-0.94,1.47-2.94,0.94s-2.72-3.52-2-4.62
	c0.53-0.81,0.64-0.4,0.62,0.06c-0.07,1.84,2.22,3.16,3.65,1.89c1.84-1.61,0.11-5.58-3.54-4.92c-2.66,0.48-4.7,3.14-4.95,7.41
	c-0.4,7.12,3.47,12.7,6.72,18.61c3.96,7.23,3.98,16.3-4.04,22.13L8.41,74.6L7.9,74.54z"/>
<path class="st0" d="M7.9,74.54c2.26-2.39,4.9-8.07,2.77-11.91c-2.15-3.84-6.75-3.87-8.29-1.23c-1.56,2.62-0.55,4.99,1.14,5.27
	c1.69,0.28,3.36-1.58,2.84-2.81c-0.5-1.21-1.52-0.24-1.52,0.48c0,0.72-1.74,0.37-1.49-1.63c0.24-2,2.88-2.94,4.83-0.7
	c1.93,2.24,0.57,5.3-0.95,6.9c-1.52,1.61-1.41,4.99-1.76,4.81c-0.37-0.2-0.95-2.97-2.17-4c-1.23-1.03-4.02-4.5-2.04-8.46
	c2-3.96,6.7-2.7,8.9-0.73c2.22,1.96,2.28,4.18,2.28,4.18s0.86-1.78-1.8-4.59c-2.66-2.79-5.82-6.09-5.87-12.31
	c-0.06-6.2,3.82-11.25,9.71-10.53c5.87,0.72,9.3,5.32,8.92,10.37c-0.39,5.05-3.71,5.78-4.72,9.27c-0.99,3.49,0.73,5.87,0.73,5.87
	s-2.22-0.88-2.39-4.09c-0.17-3.23-0.84-4.5-2.83-6.61c-2-2.11-2.84-6.61,0.22-7.65c3.05-1.06,4.46,1.49,3.98,3.3
	c-0.46,1.8-1.87,1.54-2.4,0.46c-0.53-1.08-1.58,0.35-0.66,1.93c0.9,1.58,4.95,1.41,5.65-2.83c0.7-4.26-2-8.04-6.99-8.4
	C9,38.5,6.12,42.92,6.45,48.54c0.33,5.6,2.72,8.2,4.83,10.75c2.11,2.55,3.23,6.85,1.69,10.15C11.44,72.76,7.9,74.54,7.9,74.54
	L7.9,74.54z"/>
<path class="st0" d="M5.62,52.9c-1.01-3.12-2.66-3.06-3.45-2.68c-0.77,0.39-0.33,1.25,0.31,1.38c0.64,0.15-0.97,0.57-1.61-0.51
	c-0.62-1.08-0.02-2.15,0.59-2.55c0,0-0.77-0.37-0.5-1.23c0.28-0.86,0.72-0.77,0.72-0.77s-0.55-1.34,0.88-1.36
	c1.45-0.04,2.17,2.17,2.51,4.26C5.4,51.55,5.62,52.9,5.62,52.9L5.62,52.9z"/>
<path class="st0" d="M14.29,37.29c3.19,0.83,4.04-0.61,4.13-1.47c0.07-0.86-0.88-0.95-1.34-0.48c-0.46,0.46,0.06-1.12,1.3-1.08
	c1.25,0.04,1.82,1.12,1.84,1.85c0,0,0.73-0.46,1.3,0.24c0.59,0.68,0.28,1.01,0.28,1.01s1.41,0.26,0.68,1.49
	c-0.75,1.23-2.99,0.66-4.95-0.18S14.29,37.29,14.29,37.29L14.29,37.29z"/>
<path class="st0" d="M5.31,37.07c-0.4-3.58-2.18-3.87-3.1-3.63c-0.92,0.24-0.64,1.27,0.02,1.56c0.66,0.28-1.16,0.37-1.61-0.92
	c-0.44-1.3,0.44-2.29,1.19-2.61c0,0-0.75-0.57-0.28-1.43c0.5-0.84,0.95-0.66,0.95-0.66s-0.31-1.56,1.25-1.27
	c1.54,0.29,1.84,2.79,1.72,5.12C5.37,35.56,5.31,37.07,5.31,37.07L5.31,37.07z"/>
<path class="st0" d="M8.16,27.54c2.62-3.47,2.83-8.15,1.61-11.69c-1.52-4.53-4.59-4.26-6.57-8C2.28,6.11,2.17,4.4,3.29,3.39
	c2.13-1.87,2.9,1.19,2,1.54C4.38,5.3,6.72,5.12,6.67,3.54C6.61,1.94,4.6,1.34,3.73,1.7c-0.86,0.35,0.7-1.16,0.04-1.6
	C3.09-0.31,2.43,0.55,2.43,0.55S1.24-1.03,0.76,2.68C0.28,6.4,1.2,8.44,5.7,12.05c4.5,3.63,3.67,10.04,2.02,13.21
	c-1.65,3.16-2.24,4.72-2.5,6.64l0.26,0.15L8.16,27.54z"/>
<path class="st0" d="M6.82,27.07c1.85-4.57,0.46-7.84-0.81-7.67c-1.25,0.17-0.81,1.6-0.39,1.69c0.42,0.09-0.79,0.84-1.52-0.48
	c-0.73-1.3,0.4-2.42,0.88-2.46c0.46-0.04-0.59-0.68-0.35-1.17c0.22-0.5,1.05-0.59,1.05-0.59s-0.83-0.81,0.28-1.36
	c1.1-0.53,3.32,2.17,3.34,4.24C9.29,21.32,8.78,24.79,6.82,27.07L6.82,27.07z"/>
<path class="st0" d="M7.35,12.5c-1.03-0.57-1.12-2.53,0.07-3.34c1.19-0.81,2.97-0.7,3.52,0.31c0.55,0.99-0.07,1.69-0.31,1.69
	c-0.24,0.02-0.15,0.22-0.44,0.4C9.88,11.76,9.86,11.65,9.9,12c0.02,0.35-0.06,0.77-0.57,0.88c-0.51,0.11-1.1-0.51-1.01-0.95
	c0.09-0.44,0.73,0.51,0.9,0.18c0.17-0.33,0.18-1.34-0.83-1.28c-1.03,0.04-0.9,1.5,0.04,2.46l0.09,0.75L7.35,12.5z"/>
<path class="st0" d="M19.75,62.12c0,0-1.49-3.32,0.5-6.53c2-3.21,6.72-7.82,1.34-15.47l0.37-0.09c0,0,2.37,1.98,2.59,6.92
	c0.18,4.02-2.77,6.39-4.46,10.9C19.68,58.92,19.85,60.63,19.75,62.12L19.75,62.12z"/>
<path class="st0" d="M9.31,75.95c5.14-7.82,13.64-8.88,21.43-4.81c3.95,2.07,6.81,4.29,10.15,5.82c5.27,2.37,14.81,3.19,18.41-2.33
	c3.87-6-1.84-11.23-6.02-10.74c-4.2,0.5-3.4,3.74-2.55,4.24c0,0-1.47,0.94-0.95,2.94c0.53,2,3.52,2.72,4.64,2
	c0.81-0.53,0.4-0.62-0.06-0.61c-1.84,0.07-3.16-2.22-1.89-3.67c1.6-1.84,5.58-0.11,4.9,3.56c-0.48,2.64-3.14,4.7-7.4,4.94
	c-7.14,0.4-12.7-3.47-18.63-6.72c-7.23-3.96-16.28-3.98-22.11,4.06l0.02,0.81L9.31,75.95z"/>
<path class="st0" d="M9.31,75.95c2.39-2.26,8.09-4.9,11.91-2.75c3.84,2.13,3.87,6.73,1.25,8.29c-2.64,1.54-4.99,0.55-5.27-1.14
	c-0.29-1.69,1.58-3.36,2.79-2.86c1.23,0.5,0.26,1.52-0.46,1.52c-0.73,0-0.37,1.74,1.63,1.5c1.98-0.26,2.94-2.88,0.68-4.83
	c-2.24-1.95-5.29-0.59-6.9,0.94c-1.6,1.52-4.99,1.41-4.79,1.78c0.18,0.37,2.95,0.94,3.98,2.17c1.03,1.21,4.5,4.02,8.46,2.02
	s2.72-6.68,0.73-8.9c-1.96-2.22-4.17-2.28-4.17-2.28s1.78-0.86,4.57,1.8c2.81,2.66,6.11,5.84,12.31,5.89
	c6.22,0.06,11.27-3.84,10.53-9.71c-0.72-5.89-5.32-9.32-10.37-8.94c-5.05,0.39-5.76,3.73-9.25,4.72c-3.51,0.99-5.89-0.72-5.89-0.72
	s0.9,2.22,4.11,2.39c3.21,0.17,4.5,0.83,6.59,2.83c2.11,2,6.61,2.83,7.67-0.22c1.05-3.05-1.5-4.48-3.3-4
	c-1.8,0.48-1.56,1.89-0.48,2.42c1.08,0.51-0.33,1.58-1.91,0.66c-1.58-0.92-1.41-4.97,2.83-5.65c4.24-0.7,8.02,2,8.4,6.97
	c0.37,4.99-4.06,7.89-9.65,7.54c-5.6-0.33-8.2-2.72-10.75-4.81c-2.55-2.11-6.85-3.25-10.17-1.71C11.11,72.43,9.31,75.95,9.31,75.95
	L9.31,75.95z"/>
<path class="st0" d="M30.95,78.23c3.14,1.01,3.08,2.68,2.7,3.45c-0.39,0.77-1.25,0.33-1.39-0.29c-0.13-0.64-0.55,0.95,0.53,1.6
	c1.08,0.64,2.13,0.04,2.55-0.59c0,0,0.37,0.79,1.21,0.51c0.86-0.28,0.79-0.73,0.79-0.73s1.32,0.57,1.36-0.88
	c0.02-1.45-2.17-2.17-4.28-2.5C32.31,78.47,30.95,78.23,30.95,78.23L30.95,78.23z"/>
<path class="st0" d="M46.57,69.57c-0.83-3.17,0.61-4.02,1.49-4.11c0.86-0.09,0.94,0.88,0.48,1.34c-0.46,0.46,1.12-0.06,1.08-1.3
	c-0.06-1.27-1.12-1.84-1.87-1.85c0,0,0.48-0.72-0.22-1.3c-0.7-0.57-1.03-0.26-1.03-0.26s-0.24-1.43-1.47-0.68
	c-1.25,0.75-0.68,2.99,0.17,4.94C46.03,68.3,46.57,69.57,46.57,69.57L46.57,69.57z"/>
<path class="st0" d="M46.8,78.56c3.56,0.39,3.87,2.18,3.62,3.1c-0.24,0.92-1.25,0.62-1.54-0.02c-0.29-0.66-0.39,1.16,0.92,1.6
	c1.3,0.44,2.29-0.44,2.61-1.17c0,0,0.55,0.75,1.41,0.26c0.86-0.48,0.68-0.94,0.68-0.94s1.54,0.29,1.27-1.25
	c-0.29-1.56-2.81-1.85-5.14-1.74C48.29,78.51,46.8,78.56,46.8,78.56L46.8,78.56z"/>
<path class="st0" d="M56.31,75.7c3.47-2.62,8.17-2.81,11.69-1.61c4.55,1.54,4.26,4.59,8.02,6.57c1.72,0.92,3.45,1.05,4.44-0.09
	c1.87-2.13-1.17-2.88-1.54-1.98c-0.35,0.9-0.18-1.43,1.41-1.38c1.6,0.04,2.2,2.07,1.84,2.92c-0.37,0.86,1.16-0.7,1.58-0.02
	c0.42,0.66-0.42,1.34-0.42,1.34s1.56,1.17-2.15,1.65c-3.71,0.48-5.74-0.42-9.38-4.92c-3.62-4.51-10.02-3.69-13.19-2.04
	c-3.17,1.65-4.73,2.24-6.66,2.51l-0.15-0.28L56.31,75.7z"/>
<path class="st0" d="M56.79,77.06c4.57-1.85,7.85-0.48,7.69,0.79c-0.17,1.27-1.6,0.81-1.69,0.39c-0.11-0.42-0.84,0.81,0.46,1.54
	c1.32,0.73,2.42-0.42,2.46-0.88c0.06-0.48,0.68,0.57,1.17,0.35c0.5-0.24,0.61-1.05,0.61-1.05s0.81,0.83,1.34-0.28
	c0.53-1.1-2.17-3.34-4.22-3.34C62.53,74.58,59.08,75.09,56.79,77.06L56.79,77.06z"/>
<path class="st0" d="M71.38,76.52c0.57,1.03,2.51,1.1,3.32-0.09c0.83-1.19,0.72-2.95-0.29-3.51c-1.01-0.55-1.69,0.07-1.71,0.31
	c-0.02,0.22-0.22,0.13-0.4,0.44c-0.18,0.31-0.09,0.31-0.42,0.29c-0.35-0.02-0.77,0.06-0.9,0.57c-0.11,0.5,0.51,1.1,0.95,0.99
	c0.46-0.09-0.5-0.73-0.17-0.88c0.33-0.17,1.34-0.2,1.28,0.83c-0.06,1.01-1.5,0.9-2.48-0.04l-0.73-0.11L71.38,76.52z"/>
<path class="st0" d="M21.74,64.1c0,0,3.32,1.5,6.55-0.5c3.21-2,7.82-6.72,15.47-1.32l0.07-0.39c0,0-1.98-2.35-6.92-2.57
	c-4-0.18-6.37,2.75-10.88,4.44C24.95,64.17,23.24,64.01,21.74,64.1L21.74,64.1z"/>
<path class="st0" d="M10.65,74.89c-2.68,2.22-2.51,7.45,0.42,8.97H0.01l10-10.24L10.65,74.89z"/>
<path class="st0" d="M8.96,73.22c-2.22,2.68-7.45,2.51-8.96-0.42v11.07l10.24-10.02L8.96,73.22z"/>
<g>
</g>
<g>
</g>
<g>
</g>
<g>
</g>
<g>
</g>
<g>
</g>
</svg>
