<?xml version="1.0" encoding="utf-8"?>
<!-- Generator: Adobe Illustrator 24.3.0, SVG Export Plug-In . SVG Version: 6.00 Build 0)  -->
<svg version="1.1" id="Layer_1" xmlns="http://www.w3.org/2000/svg" xmlns:xlink="http://www.w3.org/1999/xlink" x="0px" y="0px"
	 viewBox="0 0 83.86 83.87" style="enable-background:new 0 0 83.86 83.87;" xml:space="preserve">
<style type="text/css">
	.st0{fill-rule:evenodd;clip-rule:evenodd;fill:#010101;}
</style>
<path class="st0" d="M74.54,75.97c-5.12-7.82-13.64-8.88-21.42-4.81c-3.95,2.06-6.83,4.29-10.17,5.8
	c-5.27,2.37-14.81,3.21-18.39-2.33c-3.89-5.98,1.84-11.23,6.02-10.74c4.18,0.5,3.38,3.74,2.55,4.26c0,0,1.47,0.94,0.94,2.94
	s-3.52,2.72-4.62,2c-0.81-0.53-0.4-0.64,0.06-0.62c1.84,0.07,3.16-2.22,1.89-3.65c-1.61-1.84-5.58-0.11-4.92,3.54
	c0.48,2.66,3.14,4.7,7.41,4.95c7.12,0.4,12.7-3.47,18.61-6.72c7.23-3.96,16.3-3.98,22.13,4.04l-0.04,0.83L74.54,75.97z"/>
<path class="st0" d="M74.54,75.97c-2.39-2.26-8.07-4.9-11.91-2.77c-3.84,2.15-3.87,6.75-1.23,8.29c2.62,1.56,4.99,0.55,5.27-1.14
	c0.28-1.69-1.58-3.36-2.81-2.84c-1.21,0.5-0.24,1.52,0.48,1.52c0.72,0,0.37,1.74-1.63,1.49c-2-0.24-2.94-2.88-0.7-4.83
	c2.24-1.93,5.3-0.57,6.9,0.95c1.61,1.52,4.99,1.41,4.81,1.76c-0.2,0.37-2.97,0.95-4,2.17c-1.03,1.23-4.5,4.02-8.46,2.04
	c-3.96-2-2.7-6.7-0.73-8.9c1.96-2.22,4.18-2.28,4.18-2.28s-1.78-0.86-4.59,1.8c-2.79,2.66-6.09,5.82-12.31,5.87
	c-6.2,0.06-11.25-3.82-10.53-9.71c0.72-5.87,5.32-9.3,10.37-8.92c5.05,0.39,5.78,3.71,9.27,4.72c3.49,0.99,5.87-0.73,5.87-0.73
	s-0.88,2.22-4.09,2.39c-3.23,0.17-4.5,0.84-6.61,2.83c-2.11,2-6.61,2.84-7.65-0.22c-1.06-3.05,1.49-4.46,3.3-3.98
	c1.8,0.46,1.54,1.87,0.46,2.4c-1.08,0.53,0.35,1.58,1.93,0.66c1.58-0.9,1.41-4.95-2.83-5.65c-4.26-0.7-8.04,2-8.4,6.99
	c-0.39,4.99,4.04,7.87,9.65,7.54c5.6-0.33,8.2-2.72,10.75-4.83c2.55-2.11,6.85-3.23,10.15-1.69C72.76,72.43,74.54,75.97,74.54,75.97
	L74.54,75.97z"/>
<path class="st0" d="M52.9,78.25c-3.12,1.01-3.06,2.66-2.68,3.45c0.39,0.77,1.25,0.33,1.38-0.31c0.15-0.64,0.57,0.97-0.51,1.61
	c-1.08,0.62-2.15,0.02-2.55-0.59c0,0-0.37,0.77-1.23,0.5c-0.86-0.28-0.77-0.72-0.77-0.72s-1.34,0.55-1.36-0.88
	c-0.04-1.45,2.17-2.17,4.26-2.51C51.55,78.47,52.9,78.25,52.9,78.25L52.9,78.25z"/>
<path class="st0" d="M37.29,69.59c0.83-3.19-0.61-4.04-1.47-4.13c-0.86-0.07-0.95,0.88-0.48,1.34c0.46,0.46-1.12-0.06-1.08-1.3
	c0.04-1.25,1.12-1.82,1.85-1.84c0,0-0.46-0.73,0.24-1.3c0.68-0.59,1.01-0.28,1.01-0.28s0.26-1.41,1.49-0.68
	c1.23,0.75,0.66,2.99-0.18,4.95S37.29,69.59,37.29,69.59L37.29,69.59z"/>
<path class="st0" d="M37.07,78.56c-3.58,0.4-3.87,2.18-3.63,3.1c0.24,0.92,1.27,0.64,1.56-0.02c0.28-0.66,0.37,1.16-0.92,1.61
	c-1.3,0.44-2.29-0.44-2.61-1.19c0,0-0.57,0.75-1.43,0.28c-0.84-0.5-0.66-0.95-0.66-0.95s-1.56,0.31-1.27-1.25
	c0.29-1.54,2.79-1.84,5.12-1.73C35.56,78.51,37.07,78.56,37.07,78.56L37.07,78.56z"/>
<path class="st0" d="M27.54,75.72c-3.47-2.62-8.15-2.83-11.69-1.61c-4.53,1.52-4.26,4.59-8,6.57c-1.74,0.92-3.45,1.03-4.46-0.09
	c-1.87-2.13,1.19-2.9,1.54-2c0.37,0.92,0.18-1.43-1.39-1.38c-1.6,0.06-2.2,2.07-1.84,2.94c0.35,0.86-1.16-0.7-1.6-0.04
	c-0.42,0.68,0.44,1.34,0.44,1.34s-1.58,1.19,2.13,1.67c3.73,0.48,5.76-0.44,9.38-4.94c3.63-4.5,10.04-3.67,13.21-2.02
	c3.16,1.65,4.72,2.24,6.64,2.5l0.15-0.26L27.54,75.72z"/>
<path class="st0" d="M27.07,77.06c-4.57-1.85-7.84-0.46-7.67,0.81c0.17,1.25,1.6,0.81,1.69,0.39c0.09-0.42,0.84,0.79-0.48,1.52
	c-1.3,0.73-2.42-0.4-2.46-0.88c-0.04-0.46-0.68,0.59-1.17,0.35c-0.5-0.22-0.59-1.05-0.59-1.05s-0.81,0.83-1.36-0.28
	c-0.53-1.1,2.17-3.32,4.24-3.34C21.32,74.58,24.79,75.09,27.07,77.06L27.07,77.06z"/>
<path class="st0" d="M12.5,76.52c-0.57,1.03-2.53,1.12-3.34-0.07c-0.81-1.19-0.7-2.97,0.31-3.52c0.99-0.55,1.69,0.07,1.69,0.31
	c0.02,0.24,0.22,0.15,0.4,0.44c0.2,0.31,0.09,0.33,0.44,0.29c0.35-0.02,0.77,0.06,0.88,0.57c0.11,0.51-0.51,1.1-0.95,1.01
	c-0.44-0.09,0.51-0.73,0.18-0.9c-0.33-0.17-1.34-0.18-1.28,0.83c0.04,1.03,1.5,0.9,2.46-0.04l0.75-0.09L12.5,76.52z"/>
<path class="st0" d="M62.12,64.12c0,0-3.32,1.49-6.53-0.5c-3.21-2-7.82-6.72-15.47-1.34l-0.09-0.37c0,0,1.98-2.37,6.92-2.59
	c4.02-0.18,6.39,2.77,10.9,4.46C58.92,64.19,60.63,64.03,62.12,64.12L62.12,64.12z"/>
<path class="st0" d="M75.95,74.56c-7.82-5.14-8.88-13.64-4.81-21.43c2.07-3.95,4.29-6.81,5.82-10.15
	c2.37-5.27,3.19-14.81-2.33-18.41c-6-3.87-11.23,1.84-10.74,6.02c0.5,4.2,3.74,3.4,4.24,2.55c0,0,0.94,1.47,2.94,0.95
	c2-0.53,2.72-3.52,2-4.64c-0.53-0.81-0.62-0.4-0.61,0.06c0.07,1.84-2.22,3.16-3.67,1.89c-1.84-1.6-0.11-5.58,3.56-4.9
	c2.64,0.48,4.7,3.14,4.94,7.4c0.4,7.14-3.47,12.7-6.72,18.63c-3.96,7.23-3.98,16.28,4.06,22.11l0.81-0.02L75.95,74.56z"/>
<path class="st0" d="M75.95,74.56c-2.26-2.39-4.9-8.09-2.75-11.91c2.13-3.84,6.74-3.87,8.29-1.25c1.54,2.64,0.55,4.99-1.14,5.27
	c-1.69,0.29-3.36-1.58-2.86-2.79c0.5-1.23,1.52-0.26,1.52,0.46c0,0.73,1.74,0.37,1.5-1.63c-0.26-1.98-2.88-2.94-4.83-0.68
	c-1.95,2.24-0.59,5.29,0.94,6.9c1.52,1.6,1.41,4.99,1.78,4.79c0.37-0.18,0.94-2.95,2.17-3.98c1.21-1.03,4.02-4.5,2.02-8.46
	s-6.68-2.72-8.9-0.73c-2.22,1.96-2.28,4.17-2.28,4.17s-0.86-1.78,1.8-4.57c2.66-2.81,5.84-6.11,5.89-12.31
	c0.06-6.22-3.84-11.27-9.71-10.53c-5.89,0.72-9.32,5.32-8.94,10.37c0.39,5.05,3.73,5.76,4.72,9.25c0.99,3.51-0.72,5.89-0.72,5.89
	s2.22-0.9,2.39-4.11c0.17-3.21,0.83-4.5,2.83-6.59c2-2.11,2.83-6.61-0.22-7.67c-3.05-1.05-4.48,1.5-4,3.3
	c0.48,1.8,1.89,1.56,2.42,0.48c0.51-1.08,1.58,0.33,0.66,1.91c-0.92,1.58-4.97,1.41-5.65-2.83c-0.7-4.24,2-8.02,6.97-8.4
	c4.99-0.37,7.89,4.06,7.54,9.65c-0.33,5.6-2.72,8.2-4.81,10.75c-2.11,2.55-3.25,6.85-1.71,10.17
	C72.43,72.76,75.95,74.56,75.95,74.56L75.95,74.56z"/>
<path class="st0" d="M78.23,52.92c1.01-3.14,2.68-3.08,3.45-2.7c0.77,0.39,0.33,1.25-0.29,1.39c-0.64,0.13,0.95,0.55,1.6-0.53
	c0.64-1.08,0.04-2.13-0.59-2.55c0,0,0.79-0.37,0.51-1.21c-0.28-0.86-0.73-0.79-0.73-0.79s0.57-1.32-0.88-1.36
	c-1.45-0.02-2.17,2.17-2.5,4.28S78.23,52.92,78.23,52.92L78.23,52.92z"/>
<path class="st0" d="M69.57,37.31c-3.17,0.83-4.02-0.61-4.11-1.49c-0.09-0.86,0.88-0.94,1.34-0.48c0.46,0.46-0.06-1.12-1.3-1.08
	c-1.27,0.06-1.84,1.12-1.85,1.87c0,0-0.72-0.48-1.3,0.22c-0.57,0.7-0.26,1.03-0.26,1.03s-1.43,0.24-0.68,1.47
	c0.75,1.25,2.99,0.68,4.94-0.17C68.3,37.84,69.57,37.31,69.57,37.31L69.57,37.31z"/>
<path class="st0" d="M78.56,37.07c0.39-3.56,2.18-3.87,3.1-3.62c0.92,0.24,0.62,1.25-0.02,1.54c-0.66,0.29,1.16,0.39,1.6-0.92
	c0.44-1.3-0.44-2.29-1.17-2.61c0,0,0.75-0.55,0.26-1.41c-0.48-0.86-0.94-0.68-0.94-0.68s0.29-1.54-1.25-1.27
	c-1.56,0.29-1.85,2.81-1.74,5.14C78.51,35.58,78.56,37.07,78.56,37.07L78.56,37.07z"/>
<path class="st0" d="M75.7,27.56c-2.62-3.47-2.81-8.17-1.61-11.69c1.54-4.55,4.59-4.26,6.57-8.02c0.92-1.72,1.05-3.45-0.09-4.44
	c-2.13-1.87-2.88,1.17-1.98,1.54c0.9,0.35-1.43,0.18-1.38-1.41c0.04-1.6,2.07-2.2,2.92-1.84c0.86,0.37-0.7-1.16-0.02-1.58
	c0.66-0.42,1.34,0.42,1.34,0.42s1.17-1.56,1.65,2.15c0.48,3.71-0.42,5.74-4.92,9.38c-4.51,3.62-3.69,10.02-2.04,13.19
	c1.65,3.17,2.24,4.73,2.51,6.66l-0.28,0.15L75.7,27.56z"/>
<path class="st0" d="M77.06,27.08c-1.85-4.57-0.48-7.85,0.79-7.69c1.27,0.17,0.81,1.6,0.39,1.69c-0.42,0.11,0.81,0.84,1.54-0.46
	c0.73-1.32-0.42-2.42-0.88-2.46c-0.48-0.06,0.57-0.68,0.35-1.17c-0.24-0.5-1.05-0.61-1.05-0.61s0.83-0.81-0.28-1.34
	c-1.1-0.53-3.34,2.17-3.34,4.22C74.58,21.34,75.09,24.79,77.06,27.08L77.06,27.08z"/>
<path class="st0" d="M76.52,12.5c1.03-0.57,1.1-2.51-0.09-3.32c-1.19-0.83-2.95-0.72-3.51,0.29c-0.55,1.01,0.07,1.69,0.31,1.71
	c0.22,0.02,0.13,0.22,0.44,0.4c0.31,0.18,0.31,0.09,0.29,0.42c-0.02,0.35,0.06,0.77,0.57,0.9c0.5,0.11,1.1-0.51,0.99-0.95
	c-0.09-0.46-0.73,0.5-0.88,0.17c-0.17-0.33-0.2-1.34,0.83-1.28c1.01,0.06,0.9,1.5-0.04,2.48l-0.11,0.73L76.52,12.5z"/>
<path class="st0" d="M64.1,62.14c0,0,1.5-3.32-0.5-6.55c-2-3.21-6.72-7.82-1.32-15.47l-0.39-0.07c0,0-2.35,1.98-2.57,6.92
	c-0.18,4,2.75,6.37,4.44,10.88C64.17,58.92,64.01,60.63,64.1,62.14L64.1,62.14z"/>
<path class="st0" d="M74.89,73.22c2.22,2.68,7.45,2.51,8.97-0.42v11.07l-10.24-10L74.89,73.22z"/>
<path class="st0" d="M73.22,74.91c2.68,2.22,2.51,7.45-0.42,8.96h11.07L73.84,73.62L73.22,74.91z"/>
<g>
</g>
<g>
</g>
<g>
</g>
<g>
</g>
<g>
</g>
<g>
</g>
</svg>
