<?xml version="1.0" encoding="utf-8"?>
<!-- Generator: Adobe Illustrator 24.3.0, SVG Export Plug-In . SVG Version: 6.00 Build 0)  -->
<svg version="1.1" id="Layer_1" xmlns="http://www.w3.org/2000/svg" xmlns:xlink="http://www.w3.org/1999/xlink" x="0px" y="0px"
	 viewBox="0 0 83.87 83.86" style="enable-background:new 0 0 83.87 83.86;" xml:space="preserve">
<style type="text/css">
	.st0{fill-rule:evenodd;clip-rule:evenodd;fill:#010101;}
</style>
<path class="st0" d="M75.97,9.31c-7.82,5.12-8.88,13.64-4.81,21.42c2.06,3.95,4.29,6.83,5.8,10.17c2.37,5.27,3.21,14.81-2.33,18.39
	c-5.98,3.89-11.23-1.84-10.74-6.02s3.74-3.38,4.26-2.55c0,0,0.94-1.47,2.94-0.94c2,0.53,2.72,3.52,2,4.62
	c-0.53,0.81-0.64,0.4-0.62-0.06c0.07-1.84-2.22-3.16-3.65-1.89c-1.84,1.62-0.11,5.58,3.54,4.92c2.66-0.48,4.7-3.14,4.95-7.41
	c0.4-7.12-3.47-12.7-6.72-18.61c-3.96-7.23-3.98-16.3,4.04-22.13l0.83,0.04L75.97,9.31z"/>
<path class="st0" d="M75.97,9.31c-2.26,2.39-4.9,8.07-2.77,11.91c2.15,3.84,6.75,3.87,8.29,1.23c1.56-2.62,0.55-4.99-1.14-5.27
	c-1.69-0.28-3.36,1.58-2.84,2.81c0.5,1.21,1.52,0.24,1.52-0.48s1.74-0.37,1.49,1.63c-0.24,2-2.88,2.94-4.83,0.7
	c-1.93-2.24-0.57-5.3,0.95-6.9c1.52-1.61,1.41-4.99,1.76-4.81c0.37,0.2,0.95,2.97,2.17,4c1.23,1.03,4.02,4.5,2.04,8.46
	c-2,3.96-6.7,2.7-8.9,0.73c-2.22-1.96-2.28-4.18-2.28-4.18s-0.86,1.78,1.8,4.59c2.66,2.79,5.82,6.09,5.87,12.31
	c0.06,6.2-3.82,11.25-9.71,10.53c-5.87-0.72-9.3-5.32-8.92-10.37c0.39-5.05,3.71-5.78,4.72-9.27c0.99-3.49-0.73-5.87-0.73-5.87
	s2.22,0.88,2.39,4.09c0.17,3.23,0.84,4.5,2.83,6.61c2,2.11,2.84,6.61-0.22,7.65c-3.05,1.06-4.46-1.49-3.98-3.3
	c0.46-1.8,1.87-1.54,2.4-0.46c0.53,1.08,1.58-0.35,0.66-1.93c-0.9-1.58-4.95-1.41-5.65,2.83c-0.7,4.26,2,8.04,6.99,8.4
	c4.99,0.39,7.87-4.04,7.54-9.65c-0.33-5.6-2.72-8.2-4.83-10.75c-2.11-2.55-3.23-6.85-1.69-10.15C72.43,11.09,75.97,9.31,75.97,9.31
	L75.97,9.31z"/>
<path class="st0" d="M78.25,30.95c1.01,3.12,2.66,3.06,3.45,2.68c0.77-0.39,0.33-1.25-0.31-1.38c-0.64-0.15,0.97-0.57,1.61,0.51
	c0.62,1.08,0.02,2.15-0.59,2.55c0,0,0.77,0.37,0.5,1.23c-0.28,0.86-0.72,0.77-0.72,0.77s0.55,1.34-0.88,1.36
	c-1.45,0.04-2.17-2.17-2.51-4.26C78.47,32.31,78.25,30.95,78.25,30.95L78.25,30.95z"/>
<path class="st0" d="M69.59,46.57c-3.19-0.83-4.04,0.61-4.13,1.47c-0.07,0.86,0.88,0.95,1.34,0.48c0.46-0.46-0.06,1.12-1.3,1.08
	c-1.25-0.04-1.82-1.12-1.84-1.85c0,0-0.73,0.46-1.3-0.24c-0.59-0.68-0.28-1.01-0.28-1.01s-1.41-0.26-0.68-1.49
	c0.75-1.23,2.99-0.66,4.95,0.18S69.59,46.57,69.59,46.57L69.59,46.57z"/>
<path class="st0" d="M78.56,46.79c0.4,3.58,2.18,3.87,3.1,3.63c0.92-0.24,0.64-1.27-0.02-1.56c-0.66-0.28,1.16-0.37,1.61,0.92
	c0.44,1.3-0.44,2.29-1.19,2.61c0,0,0.75,0.57,0.28,1.43c-0.5,0.84-0.95,0.66-0.95,0.66s0.31,1.56-1.25,1.27
	c-1.54-0.29-1.84-2.79-1.72-5.12C78.51,48.29,78.56,46.79,78.56,46.79L78.56,46.79z"/>
<path class="st0" d="M75.72,56.31c-2.62,3.47-2.83,8.15-1.61,11.69c1.52,4.53,4.59,4.26,6.57,8c0.92,1.74,1.03,3.45-0.09,4.46
	c-2.13,1.87-2.9-1.19-2-1.54c0.92-0.37-1.43-0.18-1.38,1.39c0.06,1.6,2.07,2.2,2.94,1.84c0.86-0.35-0.7,1.16-0.04,1.6
	c0.68,0.42,1.34-0.44,1.34-0.44s1.19,1.58,1.67-2.13c0.48-3.73-0.44-5.76-4.94-9.38c-4.5-3.63-3.67-10.04-2.02-13.21
	c1.65-3.16,2.24-4.72,2.5-6.64L78.4,51.8L75.72,56.31z"/>
<path class="st0" d="M77.06,56.79c-1.85,4.57-0.46,7.84,0.81,7.67c1.25-0.17,0.81-1.6,0.39-1.69c-0.42-0.09,0.79-0.84,1.52,0.48
	c0.73,1.3-0.4,2.42-0.88,2.46c-0.46,0.04,0.59,0.68,0.35,1.17c-0.22,0.5-1.05,0.59-1.05,0.59s0.83,0.81-0.28,1.36
	c-1.1,0.53-3.32-2.17-3.34-4.24C74.58,62.53,75.09,59.06,77.06,56.79L77.06,56.79z"/>
<path class="st0" d="M76.52,71.36c1.03,0.57,1.12,2.53-0.07,3.34c-1.19,0.81-2.97,0.7-3.52-0.31C72.38,73.4,73,72.7,73.24,72.7
	c0.24-0.02,0.15-0.22,0.44-0.4c0.31-0.2,0.33-0.09,0.29-0.44c-0.02-0.35,0.06-0.77,0.57-0.88c0.51-0.11,1.1,0.51,1.01,0.95
	c-0.09,0.44-0.73-0.51-0.9-0.18c-0.17,0.33-0.18,1.34,0.83,1.28c1.03-0.04,0.9-1.5-0.04-2.46l-0.09-0.75L76.52,71.36z"/>
<path class="st0" d="M64.12,21.74c0,0,1.49,3.32-0.5,6.53c-2,3.21-6.72,7.82-1.34,15.47l-0.37,0.09c0,0-2.37-1.98-2.59-6.92
	c-0.18-4.02,2.77-6.39,4.46-10.9C64.19,24.93,64.03,23.22,64.12,21.74L64.12,21.74z"/>
<path class="st0" d="M74.56,7.9c-5.14,7.82-13.64,8.88-21.43,4.81c-3.95-2.07-6.81-4.29-10.15-5.82C37.71,4.52,28.17,3.7,24.57,9.22
	c-3.87,6,1.84,11.23,6.02,10.74c4.2-0.5,3.39-3.74,2.55-4.24c0,0,1.47-0.94,0.95-2.94c-0.53-2-3.52-2.72-4.64-2
	c-0.81,0.53-0.4,0.62,0.06,0.61c1.84-0.07,3.16,2.22,1.89,3.67c-1.6,1.84-5.58,0.11-4.9-3.56c0.48-2.64,3.14-4.7,7.4-4.94
	c7.14-0.4,12.7,3.47,18.63,6.72c7.23,3.96,16.28,3.98,22.11-4.06l-0.02-0.81L74.56,7.9z"/>
<path class="st0" d="M74.56,7.9c-2.39,2.26-8.09,4.9-11.91,2.75c-3.84-2.13-3.87-6.73-1.25-8.29c2.64-1.54,4.99-0.55,5.27,1.14
	c0.29,1.69-1.58,3.36-2.79,2.86c-1.23-0.5-0.26-1.52,0.46-1.52c0.73,0,0.37-1.74-1.63-1.5c-1.98,0.26-2.94,2.88-0.68,4.83
	c2.24,1.95,5.29,0.59,6.9-0.94c1.6-1.52,4.99-1.41,4.79-1.78c-0.18-0.37-2.95-0.94-3.98-2.17c-1.03-1.21-4.5-4.02-8.46-2.02
	s-2.72,6.68-0.73,8.9c1.96,2.22,4.17,2.28,4.17,2.28s-1.78,0.86-4.57-1.8c-2.81-2.66-6.11-5.84-12.31-5.89
	c-6.22-0.05-11.27,3.84-10.53,9.71c0.72,5.89,5.32,9.32,10.37,8.94c5.05-0.39,5.76-3.73,9.25-4.72c3.51-0.99,5.89,0.72,5.89,0.72
	s-0.9-2.22-4.11-2.39c-3.21-0.17-4.5-0.83-6.59-2.83c-2.11-2-6.61-2.83-7.67,0.22c-1.05,3.05,1.5,4.48,3.3,4
	c1.8-0.48,1.56-1.89,0.48-2.42c-1.08-0.51,0.33-1.58,1.91-0.66c1.58,0.92,1.41,4.97-2.83,5.65c-4.24,0.7-8.02-2-8.4-6.97
	C38.52,9,42.94,6.1,48.54,6.45c5.6,0.33,8.2,2.72,10.75,4.81c2.55,2.11,6.85,3.25,10.17,1.71C72.76,11.42,74.56,7.9,74.56,7.9
	L74.56,7.9z"/>
<path class="st0" d="M52.92,5.63c-3.14-1.01-3.08-2.68-2.7-3.45c0.39-0.77,1.25-0.33,1.39,0.29c0.13,0.64,0.55-0.95-0.53-1.6
	c-1.08-0.64-2.13-0.04-2.55,0.59c0,0-0.37-0.79-1.21-0.51c-0.86,0.28-0.79,0.73-0.79,0.73s-1.32-0.57-1.36,0.88
	c-0.02,1.45,2.17,2.17,4.28,2.5C51.57,5.39,52.92,5.63,52.92,5.63L52.92,5.63z"/>
<path class="st0" d="M37.31,14.29c0.83,3.17-0.61,4.02-1.49,4.11c-0.86,0.09-0.94-0.88-0.48-1.34c0.46-0.46-1.12,0.06-1.08,1.3
	c0.06,1.27,1.12,1.84,1.87,1.85c0,0-0.48,0.72,0.22,1.3c0.7,0.57,1.03,0.26,1.03,0.26s0.24,1.43,1.47,0.68
	c1.25-0.75,0.68-2.99-0.17-4.94C37.84,15.55,37.31,14.29,37.31,14.29L37.31,14.29z"/>
<path class="st0" d="M37.07,5.3c-3.56-0.39-3.87-2.18-3.62-3.1c0.24-0.92,1.25-0.62,1.54,0.02c0.29,0.66,0.39-1.16-0.92-1.6
	c-1.3-0.44-2.29,0.44-2.61,1.17c0,0-0.55-0.75-1.41-0.26c-0.86,0.48-0.68,0.94-0.68,0.94s-1.54-0.29-1.27,1.25
	c0.29,1.56,2.81,1.85,5.14,1.74C35.58,5.35,37.07,5.3,37.07,5.3L37.07,5.3z"/>
<path class="st0" d="M27.56,8.16c-3.47,2.62-8.17,2.81-11.69,1.61c-4.55-1.54-4.26-4.59-8.02-6.57C6.13,2.29,4.4,2.16,3.41,3.29
	C1.54,5.42,4.59,6.18,4.95,5.28c0.35-0.9,0.18,1.43-1.41,1.38c-1.6-0.04-2.2-2.07-1.84-2.92c0.37-0.86-1.16,0.7-1.58,0.02
	C-0.3,3.09,0.55,2.41,0.55,2.41S-1.01,1.24,2.7,0.76c3.71-0.48,5.74,0.42,9.38,4.92c3.62,4.51,10.02,3.69,13.19,2.04
	C28.44,6.07,30,5.48,31.93,5.2l0.15,0.28L27.56,8.16z"/>
<path class="st0" d="M27.08,6.8c-4.57,1.85-7.85,0.48-7.69-0.79c0.17-1.27,1.6-0.81,1.69-0.39c0.11,0.42,0.84-0.81-0.46-1.54
	c-1.32-0.73-2.42,0.42-2.46,0.88c-0.06,0.48-0.68-0.57-1.17-0.35c-0.5,0.24-0.61,1.05-0.61,1.05s-0.81-0.83-1.34,0.28
	s2.17,3.34,4.22,3.34C21.34,9.28,24.79,8.76,27.08,6.8L27.08,6.8z"/>
<path class="st0" d="M12.5,7.33c-0.57-1.03-2.51-1.1-3.32,0.09c-0.83,1.19-0.72,2.95,0.29,3.51c1.01,0.55,1.69-0.07,1.71-0.31
	c0.02-0.22,0.22-0.13,0.4-0.44c0.18-0.31,0.09-0.31,0.42-0.29c0.35,0.02,0.77-0.06,0.9-0.57c0.11-0.5-0.51-1.1-0.95-0.99
	c-0.46,0.09,0.5,0.73,0.17,0.88c-0.33,0.17-1.34,0.2-1.28-0.83c0.06-1.01,1.5-0.9,2.48,0.04l0.73,0.11L12.5,7.33z"/>
<path class="st0" d="M62.14,19.76c0,0-3.32-1.5-6.55,0.5c-3.21,2-7.82,6.72-15.47,1.32l-0.07,0.39c0,0,1.98,2.35,6.92,2.57
	c4,0.18,6.37-2.75,10.88-4.44C58.92,19.68,60.63,19.85,62.14,19.76L62.14,19.76z"/>
<path class="st0" d="M73.22,8.97c2.68-2.22,2.51-7.45-0.42-8.97h11.07l-10,10.24L73.22,8.97z"/>
<path class="st0" d="M74.91,10.64c2.22-2.68,7.45-2.51,8.96,0.42V-0.01L73.62,10.01L74.91,10.64z"/>
<g>
</g>
<g>
</g>
<g>
</g>
<g>
</g>
<g>
</g>
<g>
</g>
</svg>
